<?xml version="1.0" encoding="UTF-8"?>
<svg width="505px" height="112px" viewBox="0 0 505 112" version="1.1" xmlns="http://www.w3.org/2000/svg" xmlns:xlink="http://www.w3.org/1999/xlink">
    <title>编组</title>
    <defs>
        <polygon id="path-1" points="0 0 34.152962 0 34.152962 111.999165 0 111.999165"></polygon>
        <polygon id="path-3" points="0 0 34.1533795 0 34.1533795 111.999165 0 111.999165"></polygon>
        <polygon id="path-5" points="0 112 505 112 505 0 0 0"></polygon>
    </defs>
    <g id="页面-1" stroke="none" stroke-width="1" fill="none" fill-rule="evenodd">
        <g id="画板" transform="translate(-64, -60)">
            <g id="编组" transform="translate(64, 60)">
                <polygon id="Fill-1" fill="#FAFAFA" points="211.287857 32.2451632 226.209992 32.6346985 227 24.8858786 226.411161 24 189 24 189.687328 68.0614653 189 87 226.209992 87 226.901511 79.2469916 226.312672 78.3653015 211.092975 78.8574563 199.110842 78.7590253 198.819565 67.1797753 198.915959 59.0309487 209.617735 58.8361811 220.711371 59.1335682 221.501379 51.3784655 220.814051 50.5952064 210.405647 50.888405 199.014448 50.6936374 199.312011 32.3435942"></polygon>
                <polygon id="Stroke-2" stroke="#FFFFFF" stroke-width="0.15" points="211.287857 32.2451632 226.209992 32.6346985 227 24.8858786 226.411161 24 189 24 189.687328 68.0614653 189 87 226.209992 87 226.901511 79.2469916 226.312672 78.3653015 211.092975 78.8574563 199.110842 78.7590253 198.819565 67.1797753 198.915959 59.0309487 209.617735 58.8361811 220.711371 59.1335682 221.501379 51.3784655 220.814051 50.5952064 210.405647 50.888405 199.014448 50.6936374 199.312011 32.3435942"></polygon>
                <polygon id="Fill-3" fill="#FAFAFA" points="243 24 243.688593 68.0614653 243 87 253.328901 87 252.837649 67.1797753 252.93422 60.4089821 262.083275 60.3063626 273.296011 60.6037498 274.081176 52.947078 273.394682 52.0653879 262.96711 52.3585865 253.03289 52.1638189 253.328901 32.3435942 263.458362 32.2451632 278.214836 32.8336547 279 24.8858786 278.311407 24"></polygon>
                <polygon id="Stroke-4" stroke="#FFFFFF" stroke-width="0.15" points="243 24 243.688593 68.0614653 243 87 253.328901 87 252.837649 67.1797753 252.93422 60.4089821 262.083275 60.3063626 273.296011 60.6037498 274.081176 52.947078 273.394682 52.0653879 262.96711 52.3585865 253.03289 52.1638189 253.328901 32.3435942 263.458362 32.2451632 278.214836 32.8336547 279 24.8858786 278.311407 24"></polygon>
                <polygon id="Fill-5" fill="#FAFAFA" points="292 24 292.688593 68.0614653 292 87 302.328901 87 301.837649 67.1797753 301.93422 60.4089821 311.083275 60.3063626 322.296011 60.6037498 323.081176 52.947078 322.394682 52.0653879 311.96711 52.3585865 302.03289 52.1638189 302.328901 32.3435942 312.458362 32.2451632 327.214836 32.8336547 328 24.8858786 327.311407 24"></polygon>
                <polygon id="Stroke-6" stroke="#FFFFFF" stroke-width="0.15" points="292 24 292.688593 68.0614653 292 87 302.328901 87 301.837649 67.1797753 301.93422 60.4089821 311.083275 60.3063626 322.296011 60.6037498 323.081176 52.947078 322.394682 52.0653879 311.96711 52.3585865 302.03289 52.1638189 302.328901 32.3435942 312.458362 32.2451632 327.214836 32.8336547 328 24.8858786 327.311407 24"></polygon>
                <polygon id="Fill-7" fill="#FAFAFA" points="350.962303 78.5600691 350.764349 67.1797753 351.349877 24 341.283387 24 341.683463 68.0614653 341 87 373.220686 87 374 79.4459477 373.318621 78.5600691"></polygon>
                <polygon id="Stroke-8" stroke="#FFFFFF" stroke-width="0.15" points="350.962303 78.5600691 350.764349 67.1797753 351.349877 24 341.283387 24 341.683463 68.0614653 341 87 373.220686 87 374 79.4459477 373.318621 78.5600691"></polygon>
                <g>
                    <path d="M425.499682,63.9211165 C425.564382,74.0925003 420.70769,79.1761054 410.927518,79.1761054 C406.037431,79.1761054 402.387086,77.8405113 399.978567,75.1693231 C397.5617,72.4939611 396.392921,68.422486 396.457621,62.9465501 L396.845823,24.2205817 L386.87155,24.2205817 L387.065651,55.6133038 L386.87155,64.3134472 C386.74215,71.8094692 388.697767,77.5942611 392.742575,81.66991 C396.781123,85.7455589 402.618754,87.780253 410.242947,87.780253 C418.132203,87.780253 424.228635,85.6641711 428.532245,81.4257467 C432.833767,77.1873223 434.922959,71.2230599 434.793558,63.5329594 L434.891652,56.0974566 L435.18176,24.2205817 L425.009212,24.2205817 L425.499682,63.9211165 Z" id="Fill-9" fill="#FAFAFA"></path>
                    <path d="M425.499682,63.9211165 C425.564382,74.0925003 420.70769,79.1761054 410.927518,79.1761054 C406.037431,79.1761054 402.387086,77.8405113 399.978567,75.1693231 C397.5617,72.4939611 396.392921,68.422486 396.457621,62.9465501 L396.845823,24.2205817 L386.87155,24.2205817 L387.065651,55.6133038 L386.87155,64.3134472 C386.74215,71.8094692 388.697767,77.5942611 392.742575,81.66991 C396.781123,85.7455589 402.618754,87.780253 410.242947,87.780253 C418.132203,87.780253 424.228635,85.6641711 428.532245,81.4257467 C432.833767,77.1873223 434.922959,71.2230599 434.793558,63.5329594 L434.891652,56.0974566 L435.18176,24.2205817 L425.009212,24.2205817 L425.499682,63.9211165 Z" id="Stroke-11" stroke="#FFFFFF" stroke-width="0.15"></path>
                    <polygon id="Fill-13" fill="#FAFAFA" points="483.690245 54.2399374 503.152495 24.220373 492.393471 24.220373 489.753284 29.5043172 477.627206 47.8854311 465.693142 29.6983957 462.860941 24.220373 450.732776 24.220373 470.975604 55.6130951 450.244394 86.9995565 460.803056 86.9995565 463.447417 82.0119473 476.846629 62.1595931 489.657277 81.425538 492.489478 86.9995565 504.713649 86.9995565"></polygon>
                    <polygon id="Stroke-15" stroke="#FFFFFF" stroke-width="0.15" points="483.690245 54.2399374 503.152495 24.220373 492.393471 24.220373 489.753284 29.5043172 477.627206 47.8854311 465.693142 29.6983957 462.860941 24.220373 450.732776 24.220373 470.975604 55.6130951 450.244394 86.9995565 460.803056 86.9995565 463.447417 82.0119473 476.846629 62.1595931 489.657277 81.425538 492.489478 86.9995565 504.713649 86.9995565"></polygon>
                    <path d="M59.6231516,47.755002 L41.891111,47.755002 C39.4387631,47.755002 37.4497524,49.7437851 37.4497524,52.1958524 L37.4497524,69.9258641 C37.4497524,72.3779314 39.4387631,74.3667145 41.891111,74.3667145 L59.6231516,74.3667145 C62.0754995,74.3667145 64.0645101,72.3779314 64.0645101,69.9258641 L64.0645101,52.1958524 C64.0645101,49.7437851 62.0754995,47.755002 59.6231516,47.755002" id="Fill-17" fill="#AEAFAD"></path>
                    <path d="M84.4346509,77.6499804 L75.3453104,77.6499804 C73.3312545,77.6499804 71.6970516,79.2839963 71.6970516,81.2978218 L71.6970516,90.3861223 C71.6970516,92.3999478 73.3312545,94.0339637 75.3453104,94.0339637 L84.4346509,94.0339637 C86.4487068,94.0339637 88.0829097,92.3999478 88.0829097,90.3861223 L88.0829097,81.2978218 C88.0829097,79.2839963 86.4487068,77.6499804 84.4346509,77.6499804" id="Fill-19" fill="#6B6C6C"></path>
                    <path d="M95.7025111,0.00104343289 L70.5779461,0.00104343289 C66.9797778,0.00104343289 64.0640927,2.91639494 64.0640927,6.51206469 L64.0640927,31.6358419 C64.0640927,35.2315117 66.9797778,38.1468632 70.5779461,38.1468632 L95.7025111,38.1468632 C99.2985923,38.1468632 102.214277,35.2315117 102.214277,31.6358419 L102.214277,6.51206469 C102.214277,2.91639494 99.2985923,0.00104343289 95.7025111,0.00104343289" id="Fill-21" fill="#FAFAFA"></path>
                    <g transform="translate(0, 0.0008)">
                        <mask id="mask-2" fill="white">
                            <use xlink:href="#path-1"></use>
                        </mask>
                        <g id="Clip-24"></g>
                        <path d="M17.7796266,54.934655 C18.0300791,54.592409 18.2617477,54.2397287 18.4850679,53.8766141 C18.5581166,53.7555758 18.6249039,53.628277 18.6958655,53.5030651 C18.8377886,53.2547281 18.9797117,53.006391 19.1070251,52.7497065 C19.1821608,52.5994522 19.2510353,52.447111 19.3219968,52.2947698 C19.4326134,52.0547802 19.5390557,51.8147907 19.6392367,51.5685405 C19.703937,51.4036781 19.764463,51.2388157 19.824989,51.0718664 C19.9147345,50.8256163 19.9961316,50.5772792 20.0733545,50.3268554 C20.1255321,50.1578192 20.1756226,49.9866962 20.2215389,49.8134864 C20.2904134,49.554715 20.3509394,49.2917699 20.4052041,49.026738 C20.4406849,48.8597887 20.4782528,48.6907526 20.5095594,48.5196296 C20.561737,48.2274684 20.5993048,47.9311334 20.6326985,47.6306248 C20.6493954,47.486631 20.6744406,47.3426373 20.6869632,47.1944698 C20.7266182,46.7457937 20.7495764,46.2929438 20.7495764,45.8359202 L20.7495764,19.1198644 C20.7495764,14.4118951 24.5794133,10.5824964 29.2879212,10.5824964 L34.152962,10.5824964 L34.152962,0 L29.2879212,0 C18.7438689,0 10.165869,8.57701839 10.165869,19.1198644 L10.165869,45.8359202 C10.165869,48.5217164 7.97858341,50.7087518 5.29247981,50.7087518 C5.26952166,50.7087518 5.24865061,50.7150124 5.22569246,50.7150124 L2.7858672,50.7150124 C1.24767112,50.7150124 -0.000417420917,51.9608713 -0.000417420917,53.4988914 L-0.000417420917,58.4698057 C-0.000417420917,60.0078257 1.24767112,61.2557715 2.7858672,61.2557715 L5.11716303,61.2557715 C5.17768906,61.2578584 5.22986667,61.2912482 5.29247981,61.2912482 C7.97858341,61.2912482 10.165869,63.4782836 10.165869,66.1640798 L10.165869,92.8801356 C10.165869,103.420895 18.7438689,112 29.2879212,112 L34.152962,112 L34.152962,101.417504 L29.2879212,101.417504 C24.5794133,101.417504 20.7495764,97.5881049 20.7495764,92.8801356 L20.7495764,66.1640798 C20.7495764,62.2762489 19.3073871,58.7202296 16.9280879,55.9989566 C17.2265438,55.6587974 17.5103901,55.3019434 17.7796266,54.934655 Z" id="Fill-23" fill="#FAFAFA" mask="url(#mask-2)"></path>
                    </g>
                    <g transform="translate(114.6067, 0.0008)">
                        <mask id="mask-4" fill="white">
                            <use xlink:href="#path-3"></use>
                        </mask>
                        <g id="Clip-26"></g>
                        <path d="M16.3733355,54.934655 C16.1228829,54.592409 15.8912143,54.2397287 15.6678941,53.8766141 C15.5948455,53.7555758 15.5280581,53.628277 15.4570966,53.5030651 C15.3151735,53.2547281 15.1732503,53.006391 15.045937,52.7497065 C14.9708012,52.5994522 14.9019267,52.447111 14.8309652,52.2947698 C14.7203486,52.0547802 14.6139063,51.8147907 14.5137253,51.5685405 C14.4490251,51.4036781 14.388499,51.2388157 14.327973,51.0718664 C14.2382275,50.8256163 14.1568304,50.5772792 14.0796075,50.3268554 C14.0274299,50.1578192 13.9773394,49.9866962 13.9314231,49.8134864 C13.8625487,49.554715 13.8020226,49.2917699 13.7477579,49.026738 C13.7122771,48.8597887 13.6747093,48.6907526 13.6434027,48.5196296 C13.5912251,48.2274684 13.5536572,47.9311334 13.5202635,47.6306248 C13.5035667,47.486631 13.4785214,47.3426373 13.4659988,47.1944698 C13.4263438,46.7457937 13.4033857,46.2929438 13.4033857,45.8359202 L13.4033857,19.1198644 C13.4033857,14.4118951 9.57354874,10.5824964 4.86504079,10.5824964 L0,10.5824964 L0,0 L4.86504079,0 C15.4090932,0 23.987093,8.57701839 23.987093,19.1198644 L23.987093,45.8359202 C23.987093,48.5217164 26.1743786,50.7087518 28.8604822,50.7087518 C28.8834404,50.7087518 28.9043114,50.7150124 28.9272696,50.7150124 L31.3670948,50.7150124 C32.9052909,50.7150124 34.1533795,51.9608713 34.1533795,53.4988914 L34.1533795,58.4698057 C34.1533795,60.0078257 32.9052909,61.2557715 31.3670948,61.2557715 L29.035799,61.2557715 C28.975273,61.2578584 28.9230954,61.2912482 28.8604822,61.2912482 C26.1743786,61.2912482 23.987093,63.4782836 23.987093,66.1640798 L23.987093,92.8801356 C23.987093,103.420895 15.4090932,112 4.86504079,112 L0,112 L0,101.417504 L4.86504079,101.417504 C9.57354874,101.417504 13.4033857,97.5881049 13.4033857,92.8801356 L13.4033857,66.1640798 C13.4033857,62.2762489 14.8455749,58.7202296 17.2248742,55.9989566 C16.9264182,55.6587974 16.642572,55.3019434 16.3733355,54.934655 Z" id="Fill-25" fill="#FAFAFA" mask="url(#mask-4)"></path>
                    </g>
                    <mask id="mask-6" fill="white">
                        <use xlink:href="#path-5"></use>
                    </mask>
                    <g id="Clip-28"></g>
                    <polygon id="Fill-27" fill="#FAFAFA" mask="url(#mask-6)" points="189.135505 86.9993479 197.534014 86.9993479 197.534014 24.2222512 189.135505 24.2222512"></polygon>
                    <polygon id="Fill-29" fill="#FAFAFA" mask="url(#mask-6)" points="243.212385 86.9993479 251.610893 86.9993479 251.610893 24.2222512 243.212385 24.2222512"></polygon>
                    <polygon id="Fill-30" fill="#FAFAFA" mask="url(#mask-6)" points="292.407527 86.9993479 300.803949 86.9993479 300.803949 24.2222512 292.407527 24.2222512"></polygon>
                    <polygon id="Fill-31" fill="#FAFAFA" mask="url(#mask-6)" points="341.297952 86.9993479 351.958882 86.9993479 351.958882 24.0615625 341.297952 24.0615625"></polygon>
                    <polygon id="Fill-32" fill="#FAFAFA" mask="url(#mask-6)" points="386.865706 62.9461328 395.264215 62.9461328 395.264215 24.2222512 386.865706 24.2222512"></polygon>
                </g>
            </g>
        </g>
    </g>
</svg>